<?xml version="1.0" encoding="UTF-8" standalone="no"?>
<!DOCTYPE svg PUBLIC "-//W3C//DTD SVG 20010904//EN"
"http://www.w3.org/TR/2001/REC-SVG-20010904/DTD/svg10.dtd">
<svg
   height="60"
   width="60"
   _SVGFile__filename="oldscale/actions/funct.svg"
   version="1.0"
   y="0"
   x="0"
   id="svg1"
   xmlns="http://www.w3.org/2000/svg"
   xmlns:rdf="http://www.w3.org/1999/02/22-rdf-syntax-ns#"
   xmlns:dc="http://purl.org/dc/elements/1.1/"
   xmlns:xlink="http://www.w3.org/1999/xlink"
   xmlns:sodipodi="http://sodipodi.sourceforge.net/DTD/sodipodi-0.dtd"
   xmlns:inkscape="http://www.inkscape.org/namespaces/inkscape"
   sodipodi:version="0.32"
   inkscape:version="0.40"
   xmlns:cc="http://web.resource.org/cc/"
   sodipodi:docname="funct.svg"
   sodipodi:docbase="/home/danny/work/flat/SVG/mono/scalable/actions">
  <sodipodi:namedview
     id="base"
     pagecolor="#ffffff"
     bordercolor="#666666"
     borderopacity="1.0"
     inkscape:pageopacity="0.0"
     inkscape:pageshadow="2"
     inkscape:zoom="4.0190203"
     inkscape:cx="44.197500"
     inkscape:cy="23.999999"
     inkscape:window-width="1024"
     inkscape:window-height="699"
     inkscape:window-x="0"
     inkscape:window-y="0"
     inkscape:current-layer="svg1" />
  <defs
     id="defs3">
    <linearGradient
       id="linearGradient900">
      <stop
         style="stop-color: #000000;stop-opacity: 1.0;"
         id="stop901"
         offset="0" />
      <stop
         style="stop-color:#ffffff;stop-opacity:1;"
         id="stop902"
         offset="1" />
    </linearGradient>
    <linearGradient
       xlink:href="#linearGradient900"
       id="linearGradient903" />
    <linearGradient
       xlink:href="#linearGradient900"
       id="linearGradient904" />
    <linearGradient
       xlink:href="#linearGradient900"
       id="linearGradient905" />
    <linearGradient
       xlink:href="#linearGradient900"
       id="linearGradient906" />
    <linearGradient
       xlink:href="#linearGradient900"
       id="linearGradient907" />
  </defs>
  <path
     style="font-size:12.000000;font-weight:900;fill:none;fill-opacity:1.0000000;stroke:#ffffff;stroke-width:5.0000000;stroke-linejoin:round;stroke-miterlimit:4.0000000;stroke-opacity:1.0000000;font-family:VAG Rounded Black SSi;"
     d="M 56.875375,32.621212 C 56.875375,34.906946 56.688364,37.073195 56.314331,39.119958 C 55.940309,41.156342 55.457181,42.907008 54.864967,44.371947 C 54.490945,45.286243 54.122107,45.966773 53.758465,46.413525 C 53.394833,46.860278 52.911705,47.083665 52.309111,47.083665 C 51.675337,47.083665 51.145463,46.896644 50.719480,46.522621 C 50.303898,46.148589 50.096106,45.655081 50.096106,45.042087 C 50.096106,44.907026 50.251947,44.345982 50.563639,43.358956 C 50.875331,42.382329 51.161048,41.421278 51.420790,40.475812 C 51.680532,39.530356 51.919493,38.377099 52.137675,37.016050 C 52.355866,35.655001 52.464952,34.190052 52.464952,32.621212 C 52.464952,30.740679 52.298721,28.964038 51.966248,27.291297 C 51.633776,25.608166 51.238974,24.039326 50.781821,22.584767 C 50.324678,21.130218 50.096106,20.340592 50.096106,20.215922 C 50.096106,19.602928 50.303898,19.114615 50.719480,18.750972 C 51.135073,18.387330 51.664947,18.205514 52.309111,18.205514 C 52.922095,18.205514 53.410418,18.428890 53.774050,18.875653 C 54.137692,19.312016 54.501335,19.992545 54.864967,20.917221 C 55.457181,22.361390 55.940309,24.106862 56.314331,26.153625 C 56.688364,28.200398 56.875375,30.356257 56.875375,32.621212 z M 34.620662,37.187476 L 38.859649,32.621212 L 36.288207,29.847164 C 35.664823,29.182219 35.244036,28.730272 35.025854,28.491310 C 34.818063,28.241958 34.657017,27.997802 34.542736,27.758840 C 34.428445,27.509479 34.371310,27.228957 34.371310,26.917275 C 34.371310,26.169210 34.615467,25.551021 35.103780,25.062708 C 35.592093,24.574395 36.142746,24.330238 36.755740,24.330238 C 37.347954,24.330238 37.815487,24.413359 38.158349,24.579590 C 38.501212,24.745821 38.854454,25.067903 39.218096,25.545826 L 41.867463,28.865332 L 44.516840,25.545826 C 44.901263,25.067903 45.259700,24.745821 45.592172,24.579590 C 45.924645,24.413359 46.386983,24.330238 46.979196,24.330238 C 47.592190,24.330238 48.142844,24.569200 48.631157,25.047123 C 49.119470,25.525056 49.363637,26.148430 49.363637,26.917275 C 49.363637,27.228957 49.306491,27.509479 49.192201,27.758840 C 49.077910,27.997802 48.911679,28.241958 48.693497,28.491310 C 48.485706,28.730272 48.070113,29.182219 47.446729,29.847164 L 44.875288,32.621212 L 49.114275,37.187476 C 49.384407,37.478388 49.612988,37.795275 49.799999,38.138137 C 49.997401,38.470609 50.096106,38.865412 50.096106,39.322565 C 50.096106,40.081010 49.851940,40.694004 49.363637,41.161537 C 48.875314,41.618680 48.272710,41.847261 47.555825,41.847261 C 47.088292,41.847261 46.703870,41.748555 46.402568,41.551154 C 46.111656,41.353743 45.758403,41.026476 45.342821,40.569323 L 41.867463,36.455006 L 38.392116,40.569323 C 38.028474,40.984915 37.685621,41.301793 37.363539,41.519984 C 37.041457,41.738165 36.646645,41.847261 36.179112,41.847261 C 35.462227,41.847261 34.859623,41.618680 34.371310,41.161537 C 33.882987,40.694004 33.638830,40.081010 33.638830,39.322565 C 33.638830,38.875802 33.721951,38.496584 33.888182,38.184892 C 34.064813,37.873200 34.308970,37.540728 34.620662,37.187476 z M 26.875147,32.621212 C 26.875147,31.156262 26.963452,29.680933 27.140083,28.195203 C 27.316705,26.709474 27.555666,25.358815 27.856968,24.143227 C 28.168660,22.927629 28.511522,21.852297 28.885545,20.917221 C 29.290747,19.950985 29.664770,19.260065 30.007632,18.844483 C 30.350494,18.418500 30.828417,18.205514 31.441411,18.205514 C 32.095965,18.205514 32.625839,18.387330 33.031031,18.750972 C 33.436234,19.114615 33.638830,19.602928 33.638830,20.215922 C 33.638830,20.340592 33.410259,21.130218 32.953116,22.584767 C 32.495963,24.039326 32.101160,25.608166 31.768688,27.291297 C 31.436216,28.964038 31.269985,30.740679 31.269985,32.621212 C 31.269985,34.086161 31.379071,35.525125 31.597262,36.938124 C 31.815444,38.351124 32.054405,39.530356 32.314147,40.475812 C 32.573888,41.421278 32.859605,42.371939 33.171297,43.327786 C 33.482989,44.283642 33.638830,44.855075 33.638830,45.042087 C 33.638830,45.655081 33.431039,46.148589 33.015446,46.522621 C 32.599864,46.896644 32.075185,47.083665 31.441411,47.083665 C 30.838807,47.083665 30.366079,46.870668 30.023217,46.444696 C 29.680365,46.029103 29.301137,45.338194 28.885545,44.371947 C 28.594633,43.613502 28.329696,42.818692 28.090735,41.987517 C 27.862163,41.166732 27.649177,40.231656 27.451775,39.182299 C 27.264754,38.122552 27.119303,37.036830 27.015403,35.925133 C 26.921892,34.803046 26.875147,33.701739 26.875147,32.621212 z "
     id="path1102" />
  <path
     style="font-size:12.000000;fill:none;fill-opacity:0.75000000;fill-rule:evenodd;stroke:#ffffff;stroke-width:10.000000;stroke-linecap:round;stroke-linejoin:round;stroke-miterlimit:4.0000000;stroke-opacity:1.0000000;"
     d="M 21.541984,14.783398 C 9.9767600,18.060867 16.536526,42.013105 5.6246200,45.216602"
     id="path1103" />
  <path
     style="font-size:12.000000;fill:none;fill-opacity:0.75000000;fill-rule:evenodd;stroke:#ffffff;stroke-width:10.000000;stroke-linecap:round;stroke-linejoin:round;stroke-miterlimit:4.0000000;stroke-opacity:1.0000000;"
     d="M 6.6343480,26.954286 L 22.928442,26.954286"
     id="path1104" />
  <g
     id="g1097"
     transform="matrix(0.993314,0.000000,0.000000,0.993314,-5.427334e-3,0.512118)">
    <path
       style="font-size:12.000000;font-weight:900;fill:#000000;fill-opacity:1.0000000;stroke-width:1.0000000;font-family:VAG Rounded Black SSi"
       d="M 57.263670,32.325220 C 57.263670,34.626340 57.075400,36.807170 56.698850,38.867710 C 56.322310,40.917800 55.835930,42.680250 55.239730,44.155050 C 54.863190,45.075500 54.491870,45.760610 54.125780,46.210370 C 53.759700,46.660130 53.273320,46.885020 52.666670,46.885020 C 52.028630,46.885020 51.495190,46.696740 51.066340,46.320200 C 50.647960,45.943650 50.438770,45.446820 50.438770,44.829700 C 50.438770,44.693730 50.595660,44.128910 50.909450,43.135240 C 51.223240,42.152040 51.510880,41.184520 51.772370,40.232690 C 52.033860,39.280870 52.274430,38.119850 52.494080,36.749640 C 52.713740,35.379430 52.823560,33.904620 52.823560,32.325220 C 52.823560,30.432030 52.656210,28.643430 52.321500,26.959430 C 51.986790,25.264970 51.589330,23.685570 51.129100,22.221220 C 50.668880,20.756880 50.438770,19.961940 50.438770,19.836430 C 50.438770,19.219310 50.647960,18.727710 51.066340,18.361620 C 51.484730,17.995530 52.018170,17.812490 52.666670,17.812490 C 53.283780,17.812490 53.775390,18.037370 54.141470,18.487140 C 54.507560,18.926440 54.873650,19.611550 55.239730,20.542450 C 55.835930,21.996340 56.322310,23.753560 56.698850,25.814100 C 57.075400,27.874650 57.263670,30.045020 57.263670,32.325220 z M 34.859160,36.922220 L 39.126680,32.325220 L 36.537930,29.532500 C 35.910350,28.863080 35.486730,28.408090 35.267080,28.167520 C 35.057890,27.916490 34.895760,27.670690 34.780710,27.430120 C 34.665650,27.179080 34.608130,26.896670 34.608130,26.582890 C 34.608130,25.829790 34.853930,25.207440 35.345530,24.715840 C 35.837130,24.224240 36.391490,23.978440 37.008610,23.978440 C 37.604810,23.978440 38.075490,24.062120 38.420660,24.229470 C 38.765830,24.396820 39.121450,24.721070 39.487540,25.202210 L 42.154740,28.544060 L 44.821950,25.202210 C 45.208960,24.721070 45.569810,24.396820 45.904520,24.229470 C 46.239230,24.062120 46.704680,23.978440 47.300880,23.978440 C 47.918000,23.978440 48.472360,24.219010 48.963960,24.700150 C 49.455560,25.181300 49.701370,25.808870 49.701370,26.582890 C 49.701370,26.896670 49.643840,27.179080 49.528780,27.430120 C 49.413720,27.670690 49.246370,27.916490 49.026720,28.167520 C 48.817530,28.408090 48.399140,28.863080 47.771560,29.532500 L 45.182810,32.325220 L 49.450330,36.922220 C 49.722280,37.215090 49.952400,37.534110 50.140670,37.879280 C 50.339400,38.213990 50.438770,38.611450 50.438770,39.071680 C 50.438770,39.835230 50.192960,40.452350 49.701370,40.923030 C 49.209760,41.383250 48.603100,41.613370 47.881390,41.613370 C 47.410710,41.613370 47.023700,41.514000 46.720370,41.315270 C 46.427500,41.116530 46.071870,40.787060 45.653490,40.326830 L 42.154740,36.184820 L 38.656000,40.326830 C 38.289910,40.745220 37.944750,41.064230 37.620500,41.283890 C 37.296250,41.503540 36.898780,41.613370 36.428100,41.613370 C 35.706390,41.613370 35.099730,41.383250 34.608130,40.923030 C 34.116520,40.452350 33.870720,39.835230 33.870720,39.071680 C 33.870720,38.621910 33.954400,38.240140 34.121750,37.926350 C 34.299570,37.612560 34.545370,37.277850 34.859160,36.922220 z M 27.061510,32.325220 C 27.061510,30.850410 27.150410,29.365150 27.328230,27.869420 C 27.506040,26.373690 27.746610,25.013940 28.049940,23.790170 C 28.363730,22.566390 28.708900,21.483820 29.085440,20.542450 C 29.493370,19.569710 29.869910,18.874140 30.215080,18.455760 C 30.560250,18.026910 31.041390,17.812490 31.658510,17.812490 C 32.317470,17.812490 32.850910,17.995530 33.258830,18.361620 C 33.666760,18.727710 33.870720,19.219310 33.870720,19.836430 C 33.870720,19.961940 33.640610,20.756880 33.180390,22.221220 C 32.720160,23.685570 32.322700,25.264970 31.987990,26.959430 C 31.653280,28.643430 31.485930,30.432030 31.485930,32.325220 C 31.485930,33.800030 31.595750,35.248680 31.815410,36.671190 C 32.035060,38.093700 32.275630,39.280870 32.537120,40.232690 C 32.798610,41.184520 33.086250,42.141580 33.400040,43.103860 C 33.713830,44.066150 33.870720,44.641430 33.870720,44.829700 C 33.870720,45.446820 33.661530,45.943650 33.243140,46.320200 C 32.824760,46.696740 32.296550,46.885020 31.658510,46.885020 C 31.051850,46.885020 30.575940,46.670590 30.230770,46.241750 C 29.885610,45.823360 29.503830,45.127800 29.085440,44.155050 C 28.792570,43.391500 28.525850,42.591340 28.285280,41.754570 C 28.055170,40.928260 27.840750,39.986890 27.642020,38.930470 C 27.453740,37.863590 27.307310,36.770560 27.202710,35.651380 C 27.108570,34.521740 27.061510,33.413020 27.061510,32.325220 z "
       id="path838" />
    <path
       style="font-size:12.000000;fill:none;fill-opacity:0.75000000;fill-rule:evenodd;stroke:#000000;stroke-width:5.0336561;stroke-linecap:round;stroke-linejoin:round;stroke-opacity:1.0000000"
       d="M 21.692450,14.367340 C 10.049380,17.666870 16.653300,41.780330 5.6679460,45.005390"
       id="path836" />
    <path
       style="font-size:12.000000;fill:none;fill-opacity:0.75000000;fill-rule:evenodd;stroke:#000000;stroke-width:5.0336561;stroke-linecap:round;stroke-linejoin:round;stroke-opacity:1.0000000"
       d="M 6.6844700,26.620150 L 23.088240,26.620150"
       id="path837" />
  </g>
  <metadata
     id="metadata15">
    <rdf:RDF
       id="RDF15">
      <Work
         rdf:about=""
         id="Work16">
        <dc:title
           id="title17">Part of the Flat Icon Collection (Thu Aug 26 14:38:01 2004)</dc:title>
        <dc:description
           id="description19" />
        <dc:subject
           id="subject20">
          <rdf:Bag
             id="Bag21">
            <rdf:li
               id="li22" />
          </rdf:Bag>
        </dc:subject>
        <dc:publisher
           id="publisher23">
          <Agent
             rdf:about=""
             id="Agent24">
            <dc:title
               id="title25" />
          </Agent>
        </dc:publisher>
        <dc:creator
           id="creator26">
          <Agent
             rdf:about=""
             id="Agent27">
            <dc:title
               id="title28">Danny Allen</dc:title>
          </Agent>
        </dc:creator>
        <dc:rights
           id="rights30">
          <Agent
             rdf:about=""
             id="Agent31">
            <dc:title
               id="title32">Danny Allen</dc:title>
          </Agent>
        </dc:rights>
        <dc:date
           id="date34" />
        <dc:format
           id="format35">image/svg+xml</dc:format>
        <dc:type
           rdf:resource="http://purl.org/dc/dcmitype/StillImage"
           id="type37" />
        <license
           rdf:resource="http://creativecommons.org/licenses/LGPL/2.1/"
           id="license38">
          <dc:date
             id="date39" />
        </license>
        <dc:language
           id="language40">en</dc:language>
      </Work>
      <cc:Work
         rdf:about=""
         id="Work43">
        <dc:format
           id="format44">image/svg+xml</dc:format>
        <dc:type
           id="type46"
           rdf:resource="http://purl.org/dc/dcmitype/StillImage" />
      </cc:Work>
    </rdf:RDF>
  </metadata>
</svg>
